<svg xmlns="http://www.w3.org/2000/svg" width="60" height="41" viewBox="0 0 60 41" fill="none">
    <path d="M21.993 28.36H19.46a.333.333 0 0 1-.352-.364v-8.373a10.18 10.18 0 0 0-1.476-5.09c-.144-.243 0-.33.176-.386 0 0 2.908-.892 3.162-.959.254-.067.353-.088.518.155.527.71.912 1.514 1.135 2.37a7.246 7.246 0 0 1 1.587-1.84 5.013 5.013 0 0 1 2.864-.783c.563.04 1.12.137 1.664.287.187.055.118.228.088.341-.046.166-1.08 3.856-1.135 4.021-.055.165-.243.121-.419.044a2.417 2.417 0 0 0-.892-.165c-1.62 0-2.479 1.73-2.479 2.765v7.664c0 .187-.11.308-.375.308l-1.532.004zM32.784 30.912a.058.058 0 0 1 .078-.072c1.14.5 2.358.8 3.6.89 1.68.112 3.366-.047 4.995-.47a1.842 1.842 0 0 1 1.777.118c.543.382.911 1.219 5.215 1.219a98.436 98.436 0 0 0 10.268-.441c.53-.044.544.162.573.441.03.279.647 5 .7 5.49.044.372-.083.353-.28.4a47.782 47.782 0 0 1-11.2 1.517c-4.188-.008-13.16-.098-15.726-9.092zM32.197 11.857a.052.052 0 0 1-.08-.05c.1-.747.84-5.264 3.7-8.127C38.948.551 44.718 0 49.437 0c3.107.029 6.199.453 9.2 1.263.37.072.573-.044.47.778-.103.822-.589 5.039-.633 5.391-.044.352-.175.323-.557.294-.382-.029-4.29-.264-7.55-.264-3.261 0-4.951-.015-6.037.543a5.274 5.274 0 0 0-2.586 2.38c-.177.294-.514.1-.734.029a11.438 11.438 0 0 0-8.808 1.442l-.004.001zM42.76 24.671c-.066-.22-.272-.228-.52-.125a12.99 12.99 0 0 1-4.048.83 2.3 2.3 0 0 1-2.284-1.682c-.1-.22-.11-.367.4-.441a13.524 13.524 0 0 0 3.18-.69c1.568-.573 4.223-2.1 4.223-4.98 0-2.057-1.057-4.48-5.229-4.48-7.168 0-7.873 6.831-7.873 7.418v.955c0 2.255.6 4.47 1.91 5.725 1.18 1.128 2.585 1.664 5.068 1.752a15.15 15.15 0 0 0 5.81-1.27.291.291 0 0 0 .125-.36c-.05-.162-.696-2.431-.762-2.652zm-7.16-4.7c.035-.91.268-1.8.682-2.611a1.545 1.545 0 0 1 1.906-.8 1.262 1.262 0 0 1 .727 1.4c-.12.628-.408 1.895-2.93 2.27-.387.053-.387-.256-.387-.256l.001-.003zM58.687 24.671c-.066-.22-.27-.228-.52-.125-1.297.49-2.663.771-4.048.83a2.3 2.3 0 0 1-2.285-1.682c-.1-.22-.11-.367.4-.441a13.51 13.51 0 0 0 3.178-.69c1.571-.573 4.226-2.1 4.226-4.98 0-2.057-1.058-4.48-5.229-4.48-7.169 0-7.874 6.831-7.874 7.418v.955c0 2.255.6 4.47 1.91 5.725 1.18 1.128 2.585 1.664 5.068 1.752a15.156 15.156 0 0 0 5.81-1.27.292.292 0 0 0 .125-.36 290.97 290.97 0 0 0-.76-2.652zm-7.16-4.7c.035-.91.268-1.8.682-2.611a1.544 1.544 0 0 1 1.905-.8 1.26 1.26 0 0 1 .727 1.4c-.12.628-.407 1.895-2.93 2.27-.38.053-.38-.256-.38-.256l-.005-.003zM13.329 10.332a1.56 1.56 0 0 1 1.074.493.275.275 0 0 0 .43.04c.11-.117 1.807-1.874 1.972-2.056a.19.19 0 0 0 0-.3 5.37 5.37 0 0 0-4.187-1.774 6.051 6.051 0 0 0-3.906 1.212 4.466 4.466 0 0 0-1.537 3.448 4.244 4.244 0 0 0 .242 1.638c.147.4-.118.411-.118.411H5.413a.199.199 0 0 0-.2.2v3.23a.2.2 0 0 0 .2.2h1.7c.23 0 .442.1.442.31v10.862a2.138 2.138 0 0 1-.925 2.02 1.191 1.191 0 0 1-.718.175c-.287-.028-.574-.1-.874-.1a4.039 4.039 0 1 0 4.01 4.5c.162-1.322 1.352-1.19 2.409-3.052a6.84 6.84 0 0 0 .915-3.085v-11.3c0-.308.215-.334.27-.336h2.228a.3.3 0 0 0 .249-.246l.543-3.186a.2.2 0 0 0-.2-.2h-3.194c-.6 0-.632-.55-.632-1.212-.011-.5.155-.988.47-1.377a1.619 1.619 0 0 1 1.223-.515zm-8.29 25.673a1.62 1.62 0 1 1 0-3.239 1.62 1.62 0 0 1 0 3.24z" fill="#fff"/>
</svg>