<svg xmlns="http://www.w3.org/2000/svg" width="89" height="60" fill="none">
    <path fill-rule="evenodd" clip-rule="evenodd" d="M46.526 17.784c-.058.033-.13-.009-.12-.075.154-1.12 1.25-7.895 5.52-12.19C56.593.828 65.201 0 72.234 0c6.221 0 11.257 1.276 13.142 1.753.246.062.438.111.572.142.08.015.156.025.225.034.406.053.607.079.477 1.133-.088.707-.362 3.083-.593 5.084-.173 1.492-.321 2.776-.35 3.002-.062.502-.242.488-.748.447l-.084-.006c-.57-.045-6.397-.398-11.26-.398h-.358c-4.63 0-7.065 0-8.646.815-1.622.838-2.76 1.586-3.856 3.57-.224.376-.626.222-.943.1-.053-.02-.105-.04-.152-.056-.328-.11-2.015-.485-4.207-.485-2.163.002-5.129.388-8.927 2.649zM27.53 42.534h3.779l2.284.002c.394 0 .559-.182.559-.463v-11.5c0-1.555 1.282-4.149 3.697-4.149.558 0 1.068.133 1.33.249.263.115.542.182.624-.066a1037.15 1037.15 0 0 0 1.706-6.083c.046-.167.107-.387-.145-.462-.51-.148-1.857-.43-2.482-.43-.625 0-2.843.051-4.272 1.174-1.43 1.125-2.366 2.76-2.366 2.76-.518-1.89-1.275-2.962-1.6-3.422a8.252 8.252 0 0 1-.092-.13c-.245-.364-.393-.332-.772-.232-.377.1-4.714 1.437-4.714 1.437-.263.083-.477.215-.263.578 1.873 2.478 2.201 6.809 2.201 7.634V41.99c0 .364.232.545.526.545zm19.989 3.727c-.067-.03-.136.036-.116.107C51.231 59.858 64.611 60 70.859 60c8.545 0 16.71-2.275 16.71-2.275l.088-.018c.244-.048.39-.077.332-.577-.042-.364-.29-2.293-.535-4.195l-.001-.009-.001-.006v-.005c-.248-1.922-.491-3.81-.513-4.02l-.002-.017c-.043-.41-.074-.71-.852-.644-2.17.331-8.893.661-15.313.661-5.605 0-6.734-.958-7.47-1.582-.106-.09-.205-.174-.307-.247-.812-.573-1.6-.506-2.651-.176-1.774.595-4.645.816-7.449.706-2.394-.094-4.742-1.056-5.375-1.335zm13.983-9.447c.372-.155.678-.143.778.187.099.331 1.063 3.735 1.127 3.979.066.242 0 .43-.186.54-.186.11-4.173 1.905-8.664 1.905-3.702-.132-5.8-.937-7.558-2.628-1.958-1.882-2.848-5.205-2.848-8.587v-1.433c0-.882 1.051-11.127 11.742-11.127 6.222 0 7.8 3.635 7.8 6.72 0 4.313-3.96 6.61-6.301 7.47-1.986.727-3.93.948-4.74 1.035-.757.11-.734.33-.592.66l.041.107c.205.546.907 2.416 3.365 2.416 2.662 0 5.663-1.09 6.036-1.244zM52.62 26.04c-.97 1.686-1.018 3.916-1.018 3.916s0 .462.575.38c3.761-.56 4.188-2.461 4.37-3.403.18-.942-.476-2-1.085-2.1-.044-.006-.093-.015-.144-.025-.648-.119-1.8-.33-2.697 1.232zM86.036 37c-.099-.33-.405-.341-.778-.186-.372.154-3.373 1.244-6.035 1.244-2.459 0-3.16-1.87-3.365-2.416a2.636 2.636 0 0 0-.041-.106c-.142-.33-.165-.551.592-.661.81-.087 2.754-.307 4.74-1.036 2.34-.859 6.3-3.156 6.3-7.47 0-3.084-1.577-6.719-7.799-6.719-10.69 0-11.742 10.245-11.742 11.127v1.433c0 3.382.89 6.705 2.848 8.587 1.758 1.691 3.856 2.496 7.558 2.628 4.49 0 8.478-1.795 8.664-1.905.186-.11.251-.298.186-.54A605.75 605.75 0 0 0 86.036 37zm-10.678-7.044s.048-2.23 1.018-3.916c.899-1.562 2.05-1.35 2.697-1.232.052.01.1.019.145.026.609.1 1.265 1.157 1.085 2.099-.18.942-.609 2.842-4.37 3.404-.576.081-.576-.38-.576-.38zM19.986 16.242c-.206-.248-.855-.739-1.602-.739-.56 0-1.102.11-1.815.78-.452.422-.702 1.38-.702 2.065 0 .991.044 1.818.943 1.818h4.758c.167 0 .302.135.302.303l-.81 4.778c-.034.19-.206.37-.373.37h-3.321c-.082.002-.403.04-.403.503v16.948c0 1.52-.637 3.34-1.364 4.627-.755 1.337-1.556 1.988-2.211 2.522-.714.58-1.256 1.022-1.381 2.056h-.004c-.344 3.017-2.888 5.362-5.98 5.362C2.695 57.635 0 54.923 0 51.578c0-3.346 2.696-6.057 6.022-6.057a5.5 5.5 0 0 1 .83.083c.158.024.316.048.473.063.378.036.772-.075 1.072-.263.832-.518 1.38-1.41 1.38-3.03V26.082c0-.313-.315-.464-.66-.464H6.581a.302.302 0 0 1-.302-.304v-4.842c0-.168.135-.304.302-.304h2.813s.395-.01.175-.617c-.22-.606-.361-1.189-.361-2.456 0-1.226.383-3.68 2.292-5.173 1.318-1.03 3.107-1.817 5.824-1.817 3.815 0 5.716 2.083 6.18 2.592l.063.068s.247.182 0 .454c-.18.2-1.578 1.659-2.383 2.5l-.558.582c-.164.174-.435.19-.64-.058zM3.606 51.58a2.423 2.423 0 0 0 2.416 2.43 2.423 2.423 0 0 0 2.416-2.43 2.423 2.423 0 0 0-2.416-2.43 2.423 2.423 0 0 0-2.415 2.43z" fill="#1890FF"/>
</svg>